<svg width="15" height="15" viewBox="0 0 15 15" fill="none" xmlns="http://www.w3.org/2000/svg">
<path d="M7.50001 1.35134C9.50257 1.35134 9.73979 1.35899 10.5306 1.39508C11.2619 1.42842 11.659 1.5506 11.9233 1.65331C12.2734 1.78937 12.5232 1.95189 12.7856 2.21432C13.0481 2.47678 13.2106 2.72662 13.3467 3.0767C13.4494 3.34098 13.5716 3.7381 13.6049 4.46934C13.641 5.26018 13.6486 5.49739 13.6486 7.49995C13.6486 9.50254 13.641 9.73975 13.6049 10.5306C13.5716 11.2618 13.4494 11.659 13.3467 11.9232C13.2106 12.2733 13.0481 12.5231 12.7857 12.7856C12.5232 13.048 12.2734 13.2106 11.9233 13.3466C11.659 13.4493 11.2619 13.5715 10.5306 13.6049C9.73991 13.6409 9.50272 13.6486 7.50001 13.6486C5.49726 13.6486 5.26011 13.6409 4.46935 13.6049C3.73811 13.5715 3.34099 13.4493 3.07671 13.3466C2.72663 13.2106 2.47679 13.048 2.21436 12.7856C1.95192 12.5231 1.78937 12.2733 1.65332 11.9232C1.55061 11.659 1.42843 11.2618 1.39508 10.5306C1.359 9.73975 1.35135 9.50254 1.35135 7.49995C1.35135 5.49739 1.359 5.26018 1.39508 4.46934C1.42843 3.7381 1.55061 3.34098 1.65332 3.0767C1.78937 2.72662 1.95189 2.47678 2.21436 2.21435C2.47679 1.95189 2.72663 1.78937 3.07671 1.65331C3.34099 1.5506 3.73811 1.42842 4.46935 1.39508C5.26019 1.35899 5.49741 1.35134 7.50001 1.35134ZM7.50001 0C5.46312 0 5.20771 0.00863364 4.40775 0.0451331C3.60947 0.0815432 3.06427 0.208339 2.58721 0.393724C2.09402 0.58539 1.67576 0.841839 1.25879 1.25878C0.841842 1.67576 0.585392 2.09401 0.393755 2.5872C0.208339 3.06426 0.0815435 3.60946 0.0451332 4.40774C0.00863367 5.20769 0 5.4631 0 7.49995C0 9.53683 0.00863367 9.79224 0.0451332 10.5922C0.0815435 11.3905 0.208339 11.9357 0.393755 12.4127C0.585392 12.9059 0.841842 13.3242 1.25879 13.7411C1.67576 14.1581 2.09402 14.4145 2.58721 14.6062C3.06427 14.7916 3.60947 14.9184 4.40775 14.9548C5.20771 14.9913 5.46312 14.9999 7.50001 14.9999C9.53687 14.9999 9.79227 14.9913 10.5922 14.9548C11.3905 14.9184 11.9357 14.7916 12.4128 14.6062C12.906 14.4145 13.3242 14.1581 13.7412 13.7411C14.1581 13.3242 14.4146 12.9059 14.6063 12.4127C14.7916 11.9357 14.9184 11.3905 14.9548 10.5922C14.9913 9.79224 15 9.53683 15 7.49995C15 5.4631 14.9913 5.20769 14.9548 4.40774C14.9184 3.60946 14.7916 3.06426 14.6063 2.5872C14.4146 2.09401 14.1581 1.67576 13.7412 1.25878C13.3242 0.841839 12.906 0.58539 12.4128 0.393724C11.9357 0.208339 11.3905 0.0815432 10.5922 0.0451331C9.79227 0.00863364 9.53687 0 7.50001 0Z" fill="#9FA4A6"/>
<path d="M7.5037 3.65234C5.37664 3.65234 3.65234 5.37663 3.65234 7.50366C3.65234 9.63072 5.37664 11.355 7.5037 11.355C9.63074 11.355 11.355 9.63072 11.355 7.50366C11.355 5.37663 9.63074 3.65234 7.5037 3.65234ZM7.5037 10.0037C6.12297 10.0037 5.00369 8.88439 5.00369 7.50366C5.00369 6.12296 6.12297 5.00369 7.5037 5.00369C8.88441 5.00369 10.0037 6.12296 10.0037 7.50366C10.0037 8.88439 8.88441 10.0037 7.5037 10.0037Z" fill="#9FA4A6"/>
<path d="M12.4069 3.49767C12.4069 3.9947 12.004 4.39765 11.5069 4.39765C11.0099 4.39765 10.6069 3.9947 10.6069 3.49767C10.6069 3.00061 11.0099 2.59766 11.5069 2.59766C12.004 2.59766 12.4069 3.00061 12.4069 3.49767Z" fill="#9FA4A6"/>
</svg>
