<svg width="18" height="18" viewBox="0 0 18 18" fill="none" xmlns="http://www.w3.org/2000/svg">
<path fill-rule="evenodd" clip-rule="evenodd" d="M2.5 8.16667C2.5 5.03705 5.03705 2.5 8.16667 2.5C11.2963 2.5 13.8333 5.03705 13.8333 8.16667C13.8333 9.68911 13.2329 11.0713 12.256 12.0895C12.2255 12.1136 12.1961 12.1397 12.1679 12.1679C12.1397 12.1961 12.1136 12.2255 12.0895 12.256C11.0713 13.2329 9.68911 13.8333 8.16667 13.8333C5.03705 13.8333 2.5 11.2963 2.5 8.16667ZM12.8347 14.2489C11.5419 15.2426 9.92326 15.8333 8.16667 15.8333C3.93248 15.8333 0.5 12.4008 0.5 8.16667C0.5 3.93248 3.93248 0.5 8.16667 0.5C12.4008 0.5 15.8333 3.93248 15.8333 8.16667C15.8333 9.92326 15.2426 11.5419 14.2489 12.8347L17.2071 15.7929C17.5976 16.1834 17.5976 16.8166 17.2071 17.2071C16.8166 17.5976 16.1834 17.5976 15.7929 17.2071L12.8347 14.2489Z" fill="#40494D"/>
</svg>
