<svg width="81" height="34" viewBox="0 0 81 34" fill="none" xmlns="http://www.w3.org/2000/svg">
<path fill-rule="evenodd" clip-rule="evenodd" d="M7.23563 14.6639H4.88805V0.919922H0.6875V32.6111H4.88805V18.8672H7.23563H9.26306H10.4562C11.339 18.8672 12.1247 19.3657 12.5225 20.1575L18.5952 32.5231L18.6437 32.6111H23.2903L16.2476 18.2807C15.7723 17.3227 15.7723 16.2181 16.2476 15.2601L23.2806 0.929695H18.634L12.5225 13.3833C12.1345 14.1751 11.339 14.6736 10.4562 14.6736H9.26306H7.23563V14.6639ZM63.5001 32.5035V13.5983H69.3497C69.8638 13.5983 70.3683 13.7449 70.7951 14.0284C71.0473 14.1945 71.2801 14.3999 71.4548 14.6443C71.61 14.8592 71.6779 15.0841 71.7458 15.3383L71.8912 15.8368L72.3278 17.3324L72.3289 17.336V17.3361C72.5226 17.9996 72.7161 18.6631 72.9098 19.3363C73.0214 19.7224 73.1353 20.1109 73.2493 20.4995C73.3634 20.8881 73.4772 21.2767 73.5889 21.6628C73.8314 22.4839 74.074 23.3148 74.3067 24.1359C74.4231 24.5416 74.542 24.9497 74.6608 25.3579C74.7796 25.7659 74.8985 26.174 75.0149 26.5797C75.121 26.9495 75.2297 27.3216 75.3384 27.6937L75.3388 27.6952L75.3391 27.6961L75.3399 27.6991L75.34 27.6995L75.3403 27.7005C75.4493 28.0739 75.5583 28.4472 75.6648 28.8183C75.757 29.1261 75.8467 29.434 75.9364 29.742C76.0261 30.0499 76.116 30.3579 76.2081 30.6657L76.5864 31.956C76.6107 32.0489 76.6373 32.1393 76.664 32.2297C76.6908 32.3201 76.7174 32.4105 76.7417 32.5035V32.5132H81.0003L75.4417 13.4125L75.364 13.2561C74.2194 10.9296 71.9106 9.48291 69.3399 9.48291H59.3966V32.5132H63.5001V32.5035ZM27.9177 5.81732C26.5886 5.81732 25.5119 4.71274 25.5119 3.35398C25.5119 2.02455 26.5886 0.929735 27.9177 0.929735C29.2661 0.929735 30.3622 2.01478 30.3622 3.35398C30.3622 4.71274 29.2661 5.81732 27.9177 5.81732ZM30.0323 9.36573H25.8319V32.6209H30.0323V9.36573ZM44.758 33.0704C38.2294 33.0704 32.9134 27.6648 32.9134 21.0176C32.9134 17.7723 34.1357 14.7224 36.3571 12.4448C38.5883 10.1672 41.5665 8.90619 44.758 8.90619C51.4223 8.90619 56.6413 14.2239 56.6413 21.0079C56.6413 24.2336 55.4192 27.2541 53.2073 29.522C50.9761 31.8095 47.9786 33.0704 44.758 33.0704ZM44.758 28.8867C49.0458 28.8867 52.4022 25.4263 52.4022 21.0176C52.4022 16.5797 49.036 13.1095 44.758 13.1095C40.4896 13.1095 37.1525 16.5797 37.1525 21.0176C37.1525 25.4263 40.4896 28.8867 44.758 28.8867Z" fill="#283337"/>
</svg>
