<svg width="40" height="40" viewBox="0 0 40 40" fill="none" xmlns="http://www.w3.org/2000/svg">
<path fill-rule="evenodd" clip-rule="evenodd" d="M18.3927 0.0293255L17.413 0.0879765V39.912L18.3927 39.9707C18.7711 39.9903 19.1396 40 19.4985 40C19.8576 40 20.2359 39.9903 20.6044 39.9707L21.5843 39.912V0.0879765L20.6044 0.0293255C19.8576 -0.00977516 19.1494 -0.00977516 18.3927 0.0293255ZM28.2099 20.2151C28.1322 20.0195 28.1322 19.8044 28.2099 19.6089L33.4871 5.77707L32.9632 5.29808C32.391 4.77023 31.7798 4.26191 31.1493 3.80248L30.053 3.00092L24.3005 18.0937C23.8542 19.2571 23.8542 20.5473 24.2907 21.7107L30.0336 36.9989L31.1395 36.1975C31.77 35.738 32.3812 35.2297 32.9536 34.7019L33.4677 34.2228L28.2099 20.2151ZM6.5092 17.7908L1.50361 11.3685L0.863366 13.1378C0.552943 13.998 0.300724 14.8876 0.106708 15.7967L0 16.2756L2.81321 19.8729C2.91022 19.9903 2.91022 20.1661 2.81321 20.2835L0.0194015 23.8025L0.12611 24.2913C0.320125 25.1907 0.582045 26.0704 0.89247 26.9208L1.53271 28.6608L6.4995 22.3949C7.58598 21.0264 7.58598 19.1789 6.5092 17.7908ZM39.0069 16.2267L36.2033 19.7653C36.1064 19.8924 36.1064 20.0585 36.1937 20.1759L38.9972 23.7633L38.8904 24.2424C38.6965 25.1417 38.4346 26.0312 38.1241 26.8915L37.4839 28.6509L32.4976 22.258C31.4209 20.8699 31.4209 19.0127 32.517 17.6344L37.5033 11.3489L38.1435 13.0987C38.454 13.9491 38.7062 14.8387 38.9002 15.738L39.0069 16.2267ZM7.85762 3.80248L8.9635 3.00092L14.7257 18.348C15.1623 19.5112 15.1623 20.8015 14.7161 21.9648L8.98291 37.0088L7.88672 36.2072C7.25617 35.7477 6.64503 35.2395 6.07268 34.7116L5.54884 34.2325L10.8066 20.4496C10.8843 20.2541 10.8843 20.0391 10.8066 19.8436L5.52944 5.78684L6.04358 5.29808C6.61593 4.77023 7.22707 4.26191 7.85762 3.80248Z" fill="#61D7AC"/>
</svg>
